<?xml version="1.0" standalone="no"?>
<!DOCTYPE svg PUBLIC "-//W3C//DTD SVG 20010904//EN"
 "http://www.w3.org/TR/2001/REC-SVG-20010904/DTD/svg10.dtd">
<svg version="1.0" xmlns="http://www.w3.org/2000/svg"
 width="965.000000pt" height="902.000000pt" viewBox="0 0 965.000000 902.000000"
 preserveAspectRatio="xMidYMid meet">
<metadata>
Created by potrace 1.16, written by Peter Selinger 2001-2019
</metadata>
<g transform="translate(0.000000,902.000000) scale(0.100000,-0.100000)"
fill="#000000" stroke="none">
<path d="M4475 9014 c-22 -2 -92 -9 -155 -15 -834 -77 -1644 -368 -2345 -843
-398 -269 -792 -642 -1083 -1024 -480 -630 -767 -1331 -870 -2127 -24 -186
-24 -804 0 -990 90 -693 313 -1299 685 -1865 448 -680 1063 -1226 1808 -1605
567 -289 1131 -453 1810 -527 163 -18 837 -18 1000 0 679 74 1243 238 1810
527 450 229 812 488 1169 835 679 661 1117 1468 1281 2365 53 287 59 374 59
765 0 391 -6 478 -59 765 -249 1362 -1151 2539 -2450 3200 -553 281 -1097 443
-1755 521 -127 15 -796 28 -905 18z m292 -653 c-1 -16 -13 -19 -85 -25 -54 -4
-89 -3 -97 4 -9 8 -14 8 -17 0 -1 -5 -59 -17 -128 -25 -69 -9 -165 -23 -215
-31 -49 -9 -94 -17 -100 -17 -5 -1 -10 7 -10 17 0 26 16 30 220 61 120 18 263
32 362 34 64 1 72 -1 70 -18z m348 8 c188 -20 425 -62 425 -75 0 -14 -14 -33
-21 -28 -12 7 -26 10 -174 29 -72 9 -137 19 -145 22 -8 3 -41 5 -72 3 -38 -1
-58 3 -58 10 0 6 -4 8 -10 5 -5 -3 -49 -3 -98 1 -73 5 -88 9 -88 24 0 14 12
17 71 18 38 1 115 -3 170 -9z m-515 -204 c0 -14 -5 -25 -10 -25 -13 0 -286
-38 -320 -45 -337 -65 -596 -148 -878 -281 -52 -24 -96 -44 -99 -44 -2 0 -17
-10 -32 -21 -17 -13 -34 -18 -42 -14 -7 5 -10 4 -6 -2 4 -6 -1 -13 -11 -15
-20 -6 -46 17 -37 32 9 14 65 42 65 33 0 -5 4 -3 8 4 11 18 239 128 360 174
291 112 619 192 872 215 41 3 77 8 79 10 2 2 15 4 28 4 18 0 23 -5 23 -25z
m1034 -75 c266 -68 489 -151 727 -271 274 -137 459 -258 695 -455 l25 -21 -44
-49 c-45 -49 -45 -49 -64 -29 -28 32 -178 145 -293 222 -95 63 -237 153 -243
153 -14 0 -275 149 -270 154 4 4 -1 4 -11 0 -13 -5 -17 -4 -12 4 4 7 2 10 -7
7 -7 -3 -40 6 -73 21 -32 15 -104 44 -159 66 -55 21 -86 37 -70 34 17 -3 24
-3 17 0 -6 3 -10 10 -7 14 3 5 -8 5 -25 0 -37 -10 -131 17 -109 31 11 7 10 9
-3 9 -9 0 -19 -6 -21 -12 -3 -8 -6 -6 -6 5 -1 9 -6 17 -12 17 -5 0 -7 -5 -3
-12 5 -7 2 -9 -9 -5 -8 3 -33 9 -54 13 -36 7 -37 8 -13 16 19 6 16 7 -13 3
-25 -2 -35 0 -31 7 5 7 -2 9 -20 4 -18 -4 -25 -3 -21 3 3 7 0 8 -10 5 -8 -3
-27 -3 -41 0 -26 7 -26 6 -14 84 0 1 7 2 15 2 16 0 16 -20 0 -33 -6 -5 -4 -7
5 -4 8 2 16 9 16 15 1 7 2 17 3 22 2 16 32 12 155 -20z m-1035 -142 c-2 -24
-8 -46 -14 -50 -6 -5 -6 -8 3 -8 6 0 12 -4 12 -9 0 -5 -44 -14 -97 -20 -421
-51 -723 -142 -1124 -341 -77 -38 -139 -65 -139 -60 0 4 -7 7 -16 6 -9 0 -19
5 -21 12 -3 6 2 12 11 12 9 0 16 5 16 11 0 5 -5 7 -10 4 -6 -3 -17 1 -26 9 -8
9 -11 16 -5 16 5 0 11 8 14 18 3 14 6 12 17 -10 8 -18 21 -28 35 -28 11 0 25
-4 31 -10 5 -5 15 -6 22 -1 10 6 9 11 -4 22 -12 9 -15 10 -10 2 4 -7 2 -13 -3
-13 -6 0 -11 5 -11 11 0 5 -4 8 -9 5 -4 -3 -18 5 -30 18 -22 23 -15 46 9 31
16 -10 34 6 19 17 -9 5 -4 6 15 2 21 -5 27 -4 22 5 -11 17 10 13 25 -6 12 -15
12 -16 -3 -10 -10 3 -18 3 -18 -1 0 -11 17 -34 24 -33 20 3 26 0 20 -10 -3 -6
-15 -8 -26 -6 -15 4 -17 3 -8 -8 18 -21 51 3 45 32 -5 30 19 43 61 34 4 0 1
-8 -6 -16 -16 -19 -3 -20 15 -1 12 12 12 15 1 19 -9 4 -12 14 -9 26 3 12 1 21
-5 21 -5 0 -13 8 -17 18 -5 14 -4 15 6 5 18 -18 34 -16 20 1 -9 11 -9 16 0 22
8 4 9 3 5 -4 -4 -7 -1 -12 8 -12 19 0 19 -2 5 -34 -10 -20 -9 -28 5 -42 9 -9
19 -14 22 -12 2 3 -2 11 -11 18 -19 16 -19 30 1 30 9 0 13 -5 9 -12 -4 -7 0
-4 9 6 8 10 13 23 10 27 -3 5 0 9 5 9 6 0 11 4 11 8 0 5 -7 9 -15 9 -8 0 -11
-5 -8 -10 3 -5 0 -8 -8 -5 -20 7 -23 34 -4 42 9 3 13 2 10 -4 -3 -6 -1 -10 4
-10 6 0 11 6 11 13 0 15 95 59 241 111 72 26 99 32 108 23 8 -8 11 -7 11 5 0
10 15 20 43 27 23 6 83 22 134 36 108 29 280 58 293 50 6 -4 10 -2 10 4 0 6
15 10 33 10 17 0 59 5 92 9 33 5 77 10 98 11 l39 1 -3 -42z m1260 -123 l35
-12 -3 -359 c-2 -260 -6 -361 -14 -367 -8 -5 -7 -7 3 -5 22 3 60 -12 60 -24 0
-7 -5 -6 -14 2 -12 9 -15 8 -13 -9 1 -12 9 -23 19 -26 10 -3 28 -8 39 -11 14
-4 19 -2 15 4 -3 6 -2 13 3 17 6 3 8 -3 6 -14 -5 -28 58 -58 83 -40 14 11 15
11 5 -1 -21 -23 -15 -30 14 -17 21 9 27 9 31 -1 2 -6 9 -12 17 -12 7 0 18 -7
25 -15 7 -8 16 -12 21 -9 9 5 12 -5 12 -39 0 -11 5 -16 12 -13 7 2 16 2 20 -2
3 -4 14 -7 23 -7 11 0 16 -7 14 -17 -2 -13 2 -16 14 -11 13 5 16 3 11 -10 -3
-9 -5 -17 -3 -17 3 0 12 -3 21 -6 12 -5 16 -2 13 9 -2 9 1 15 7 14 5 -1 10 -6
11 -12 0 -5 2 -16 2 -24 1 -9 11 -12 27 -9 13 3 22 2 20 -3 -3 -4 0 -11 6 -14
5 -4 8 -13 5 -20 -3 -9 2 -11 15 -8 14 4 18 1 14 -9 -5 -11 1 -14 25 -13 29 2
29 1 14 -17 -19 -20 -25 -18 -81 39 -18 18 -33 30 -33 27 0 -7 -93 57 -108 75
-9 11 -11 11 -6 2 5 -9 3 -12 -4 -7 -7 4 -12 15 -13 24 0 9 -3 12 -5 6 -3 -7
-42 9 -101 42 -52 29 -109 58 -125 65 -21 9 -26 14 -16 20 9 6 5 9 -12 8 -23
-1 -117 29 -95 31 6 0 3 5 -5 10 -12 7 -10 11 10 19 l25 11 -25 -3 c-19 -1
-25 -8 -24 -24 0 -12 -3 -20 -8 -17 -4 3 -8 11 -8 17 0 11 -34 47 -43 47 -2 0
-4 -7 -4 -15 0 -8 6 -15 13 -15 24 0 22 -15 -2 -16 -24 -2 -24 0 -24 83 0 54
4 82 10 78 6 -4 7 -23 4 -46 -5 -29 -3 -39 7 -39 11 0 11 -2 -1 -10 -12 -8 -9
-10 13 -10 15 0 27 -5 27 -11 0 -5 -6 -7 -12 -3 -10 5 -10 4 -1 -6 6 -7 16 -9
22 -6 14 9 2 36 -15 36 -8 0 -14 7 -14 16 0 14 2 15 18 3 9 -8 21 -18 25 -24
5 -5 6 3 2 18 -4 21 -3 27 6 21 8 -4 9 -3 5 4 -9 15 -43 16 -51 2 -9 -15 -25
-12 -25 6 0 8 5 12 10 9 13 -8 13 -2 -2 30 -6 14 -15 25 -20 25 -4 0 -8 138
-8 306 0 201 3 303 10 299 6 -3 10 -2 10 4 0 5 -6 12 -12 15 -18 8 30 -4 71
-19z m-2005 -208 c15 -24 4 -32 -131 -87 -129 -52 -261 -116 -387 -187 l-79
-45 -20 21 c-12 11 -19 22 -16 24 74 64 576 304 613 294 5 -2 14 -11 20 -20z
m-2197 -24 c42 -19 96 -81 89 -100 -3 -8 -2 -12 3 -9 5 3 11 -3 14 -13 3 -13
0 -18 -8 -15 -7 3 -16 1 -20 -5 -3 -6 -11 -11 -17 -11 -6 0 -9 3 -6 6 3 3 -5
17 -18 31 -13 14 -21 31 -17 37 3 6 3 8 -2 4 -4 -4 -21 0 -37 8 -28 15 -95 16
-138 3 -26 -7 -70 -71 -76 -111 -5 -28 -11 -38 -21 -34 -8 3 -12 2 -9 -3 3 -5
-1 -12 -10 -15 -10 -4 -13 -2 -8 6 5 7 2 9 -8 6 -12 -5 -15 1 -13 30 3 75 38
134 101 173 67 41 132 45 201 12z m2936 -84 c10 -38 -2 -49 -57 -50 -28 0 -60
-2 -70 -4 -11 -2 -28 5 -38 17 -10 12 -18 16 -18 10 0 -6 5 -14 10 -17 18 -11
11 -21 -17 -23 -14 -1 -35 5 -45 15 -10 9 -18 13 -18 8 0 -4 -8 -1 -17 6 -16
12 -17 12 -5 -2 28 -37 -14 -61 -53 -30 -12 9 -15 10 -7 1 18 -20 15 -30 -9
-30 -11 0 -18 4 -15 9 3 5 -2 15 -12 22 -15 12 -16 12 -5 -1 18 -24 3 -37 -58
-49 -146 -30 -429 -134 -593 -218 -71 -36 -91 -42 -98 -31 -8 10 -9 9 -4 -4 4
-13 -13 -27 -72 -60 -74 -40 -163 -99 -190 -125 -31 -30 -53 -35 -73 -17 -21
19 -25 34 -9 34 6 0 35 18 64 40 29 22 58 40 64 40 7 0 12 4 12 8 0 12 56 42
65 34 5 -4 5 -2 1 5 -6 11 97 80 128 86 6 1 13 5 16 8 28 31 284 144 301 133
7 -4 9 -3 5 4 -19 32 595 193 686 180 16 -3 28 -1 28 3 0 4 17 10 38 12 20 2
42 4 48 5 7 1 14 -7 17 -19z m172 -157 c-5 -5 -57 -13 -115 -16 -229 -15 -487
-69 -745 -156 -224 -76 -552 -256 -770 -422 -115 -88 -371 -342 -465 -462 -29
-37 -57 -63 -62 -59 -7 4 -8 1 -3 -6 4 -7 -2 -22 -14 -35 l-22 -23 46 0 c29 0
45 4 45 12 0 7 14 27 30 45 17 18 30 36 30 40 0 4 7 11 16 14 8 3 13 9 10 14
-2 4 27 38 65 76 38 37 69 72 69 77 0 6 5 7 10 4 6 -3 10 0 10 8 0 8 10 21 23
30 12 8 56 48 97 88 41 41 93 89 115 107 60 50 274 197 346 238 162 93 386
194 524 237 149 46 197 58 210 53 8 -3 15 -2 15 2 0 9 82 29 191 46 59 9 82
10 89 1 7 -8 -15 -15 -77 -24 -47 -6 -111 -19 -142 -27 -31 -8 -67 -16 -81
-19 -184 -34 -563 -187 -745 -302 -225 -140 -354 -241 -535 -420 -74 -73 -138
-133 -142 -133 -5 0 -7 -4 -6 -9 3 -7 -28 -48 -91 -120 -12 -13 -21 -28 -21
-33 0 -4 97 -8 215 -8 l216 0 110 105 c122 117 283 245 306 245 18 0 42 -28
43 -50 0 -9 -39 -45 -87 -80 -48 -36 -140 -116 -204 -178 l-118 -113 -487 0
c-380 0 -489 3 -495 13 -11 17 -4 22 18 13 29 -13 61 -17 44 -6 -20 13 -3 32
24 27 14 -3 26 1 29 10 6 17 63 16 85 0 11 -8 13 -8 7 2 -5 9 15 12 88 12 75
0 96 3 96 14 0 8 7 16 15 20 8 3 14 9 13 13 -5 14 123 164 247 292 146 149
320 298 416 356 9 6 43 29 76 51 193 136 538 288 808 358 162 41 387 82 403
72 4 -2 15 0 26 3 30 11 212 14 201 3z m2411 -89 c-3 -7 -1 -15 5 -18 5 -4 8
-1 7 6 -2 6 2 13 8 16 8 2 12 -11 12 -39 1 -130 1 -129 33 -159 19 -18 42 -29
59 -29 15 0 33 -7 40 -15 7 -8 19 -15 26 -15 8 0 14 -9 14 -20 0 -11 -4 -20
-10 -20 -5 0 -10 -8 -10 -17 0 -15 2 -16 10 -3 8 12 10 9 8 -10 -2 -20 1 -24
17 -22 16 2 17 1 5 -7 -11 -8 -21 -4 -38 14 -13 14 -31 25 -40 25 -26 0 -71
32 -134 94 l-58 57 0 109 0 110 25 -22 c14 -12 23 -28 21 -35z m-2126 21 c224
-25 230 -26 230 -36 0 -13 -29 -21 -43 -11 -6 4 -24 8 -39 7 -16 0 -28 2 -28
5 0 7 -15 8 -295 16 -115 4 -240 3 -278 -2 -51 -7 -70 -7 -78 3 -8 9 4 14 53
18 35 3 77 8 93 9 78 10 263 5 385 -9z m-3172 -107 c29 -29 49 -57 45 -62 -5
-4 -3 -5 3 -2 6 4 42 -22 80 -58 38 -35 73 -65 77 -65 5 0 20 14 34 30 13 17
30 27 35 23 7 -4 8 -1 3 7 -5 8 -2 17 6 24 8 6 31 30 52 54 20 23 37 37 37 31
0 -8 5 -7 15 1 13 11 14 10 9 -4 -4 -10 -12 -15 -19 -12 -8 3 -11 -2 -8 -14 3
-12 -2 -20 -16 -25 -12 -3 -21 -13 -21 -22 0 -14 3 -13 23 3 19 17 19 15 -3
-11 -14 -17 -27 -32 -29 -35 -2 -3 -1 3 2 12 4 12 1 16 -14 15 -20 -1 -27 -17
-7 -17 6 0 3 -6 -8 -14 -10 -8 -16 -18 -11 -22 4 -4 7 -2 7 4 0 7 5 12 11 12
8 0 8 -4 0 -14 -7 -8 -21 -12 -34 -8 -19 5 -20 4 -9 -11 15 -17 9 -37 -11 -37
-7 0 -6 4 3 10 12 7 10 9 -6 8 l-22 -2 20 -27 c11 -15 29 -30 40 -32 11 -3 17
-10 13 -16 -4 -7 0 -8 11 -4 14 5 16 2 12 -15 -4 -13 -2 -20 3 -16 12 7 95
-60 110 -89 7 -12 8 -19 4 -15 -4 4 -16 3 -26 -3 -13 -7 -19 -6 -19 1 0 6 -4
9 -9 6 -4 -3 -26 14 -49 37 -22 23 -57 56 -77 72 -21 17 -44 36 -51 42 -10 10
-13 10 -17 0 -3 -7 -6 -4 -6 7 -1 10 -12 27 -26 38 -14 11 -23 24 -19 29 3 5
1 8 -4 7 -9 -3 -80 57 -196 163 -35 32 -38 39 -27 53 21 25 33 20 89 -37z
m3197 -47 c49 -6 93 -16 97 -23 5 -8 8 -8 8 -1 0 7 11 9 25 6 16 -3 25 -11 25
-23 0 -22 -15 -23 -115 -5 -65 12 -442 15 -547 4 -34 -3 -38 -1 -38 19 0 24
14 31 25 12 5 -7 11 -5 18 5 8 10 32 16 67 18 110 6 347 0 435 -12z m1495
-137 c46 -32 83 -61 82 -66 -6 -17 33 -65 91 -112 123 -101 148 -127 136 -141
-9 -11 -8 -14 3 -14 18 0 61 -44 51 -53 -3 -4 -1 -7 5 -7 7 0 12 -5 12 -12 0
-6 -11 -1 -25 12 -13 12 -22 27 -18 33 3 5 0 7 -8 5 -8 -3 -45 23 -84 57 -38
33 -89 76 -112 94 -24 18 -43 40 -44 49 0 12 -2 13 -6 4 -7 -18 -43 15 -43 40
0 17 -109 107 -134 109 -6 1 -18 2 -26 3 -19 1 -26 36 -8 47 25 16 44 9 128
-48z m-3705 18 l15 -29 -62 -54 c-34 -29 -70 -61 -80 -71 -10 -10 -24 -15 -30
-11 -6 4 -8 3 -4 -4 9 -16 -76 -94 -87 -79 -5 7 -6 4 -2 -9 9 -32 -19 -37 -46
-8 l-23 24 45 46 c45 48 246 224 254 224 2 0 11 -13 20 -29z m-818 -78 c-10
-9 13 -34 25 -27 6 4 4 -4 -2 -17 -12 -22 -13 -22 -26 -4 -8 10 -14 14 -14 8
0 -7 5 -15 10 -18 14 -9 12 -22 -4 -28 -11 -4 -13 -1 -10 11 5 14 4 15 -5 2
-6 -8 -8 -23 -5 -34 5 -13 3 -16 -7 -11 -9 6 -11 3 -6 -9 6 -14 3 -16 -15 -10
-20 6 -21 5 -9 -10 8 -9 9 -16 3 -16 -6 0 -12 -6 -15 -12 -2 -7 -3 -6 -2 3 1
9 -2 23 -7 30 -8 11 -9 10 -4 -3 6 -20 -10 -34 -17 -16 -3 8 -6 6 -6 -4 -1
-10 4 -18 10 -18 15 0 1 -40 -26 -72 -13 -15 -25 -33 -27 -40 -4 -10 -8 -10
-21 1 -19 15 -23 1 -5 -17 9 -9 9 -12 -1 -12 -7 0 -9 -4 -6 -10 3 -6 -1 -7 -9
-4 -9 3 -16 1 -16 -5 0 -6 -7 -11 -16 -11 -11 0 -14 5 -10 17 4 10 4 14 -1 10
-13 -13 -14 -87 -1 -87 6 0 8 -3 5 -6 -4 -4 -13 -1 -22 6 -9 8 -15 9 -15 2 0
-6 8 -16 18 -21 10 -6 12 -11 4 -11 -7 0 -11 -3 -8 -8 2 -4 -2 -16 -10 -27
-13 -18 -14 -18 -12 8 1 15 7 27 12 27 5 0 0 8 -12 18 -15 13 -18 22 -10 35 5
10 14 14 20 11 7 -5 9 -2 5 8 -3 9 4 30 17 47 21 28 24 29 39 13 9 -9 17 -11
17 -5 0 6 -7 16 -15 23 -13 11 -12 15 6 38 11 14 30 27 42 29 17 2 19 1 7 -6
-8 -5 -17 -8 -20 -6 -8 5 -5 -43 3 -52 7 -6 11 11 8 36 -2 7 2 10 8 6 17 -10
42 20 28 34 -8 8 -6 11 8 11 10 0 16 3 12 6 -3 4 -14 3 -24 -1 -34 -15 -45
-15 -32 1 6 8 18 14 25 14 8 0 14 10 14 24 0 14 11 33 25 44 14 11 25 24 25
30 0 6 12 20 28 32 15 12 20 18 12 14 -8 -4 -4 5 9 19 14 15 27 27 29 27 3 0
2 -3 -1 -7z m2811 -80 c2 -47 -1 -83 -7 -83 -5 0 -12 -7 -15 -16 -5 -14 -4
-15 9 -4 12 10 15 10 15 -4 0 -9 -4 -16 -10 -16 -5 0 -7 -7 -4 -15 4 -10 0
-13 -15 -10 -12 2 -19 0 -16 -6 4 -5 14 -9 23 -9 14 0 14 -2 3 -9 -8 -5 -20
-7 -27 -4 -7 2 -14 -4 -17 -14 -3 -10 -5 49 -6 130 l-1 148 33 -3 32 -3 3 -82z
m-1870 35 c17 -17 15 -31 -3 -24 -9 3 -15 0 -15 -9 0 -8 5 -15 11 -15 8 0 8
-5 -1 -15 -8 -10 -23 -13 -43 -10 -26 5 -28 4 -17 -9 7 -9 17 -13 23 -9 6 3 7
1 3 -6 -4 -6 -10 -9 -14 -7 -9 5 -48 -23 -44 -32 2 -3 -2 -8 -9 -11 -7 -2 -9
1 -5 8 4 6 2 11 -4 11 -7 0 -10 -6 -7 -14 3 -8 -1 -22 -10 -33 -13 -16 -14
-16 -9 -1 3 10 0 20 -6 24 -7 4 -8 3 -4 -4 4 -7 1 -12 -10 -12 -13 0 -14 -3
-4 -15 10 -12 10 -15 0 -15 -8 0 -11 -3 -8 -6 3 -3 -5 -16 -19 -30 -17 -17
-32 -23 -46 -19 -12 2 -16 2 -9 -1 21 -10 13 -26 -10 -19 -17 5 -19 4 -8 -4
16 -11 19 -6 -71 -105 -132 -147 -122 -138 -143 -123 -18 13 -16 18 50 98 87
106 213 235 226 231 5 -1 7 2 3 8 -3 5 -1 10 6 10 7 0 10 3 6 6 -5 5 161 163
174 164 3 0 10 -5 17 -12z m1496 -24 c17 -17 20 -42 8 -61 -7 -12 -32 -18
-113 -27 -103 -12 -358 -93 -494 -157 -38 -18 -78 -32 -89 -30 -10 1 -30 -8
-45 -22 -14 -14 -45 -34 -68 -46 l-41 -21 -21 33 c-19 30 -19 33 -3 49 28 27
208 117 329 164 128 49 255 86 358 104 39 6 84 15 100 20 46 12 62 11 79 -6z
m578 -414 c277 -40 528 -127 783 -274 92 -53 276 -183 300 -212 6 -6 34 -33
63 -58 29 -25 49 -46 44 -46 -4 0 -19 10 -32 23 -29 26 -33 26 -42 -5 -6 -18
-7 -16 -4 10 2 24 -2 36 -15 42 -12 7 -19 6 -22 -3 -3 -7 -6 -5 -6 6 -1 15 -7
16 -43 10 -40 -6 -42 -5 -29 11 12 14 12 16 -3 10 -13 -5 -15 -1 -9 27 6 31 5
33 -10 18 -18 -18 -70 -14 -61 5 3 6 -1 3 -9 -7 -11 -14 -16 -15 -21 -5 -3 7
-4 4 -1 -8 3 -11 -2 -29 -11 -40 -15 -19 -16 -19 -9 1 7 21 13 85 7 85 -1 0
-7 -12 -13 -27 -7 -16 -13 -23 -16 -15 -3 6 -9 10 -14 6 -5 -3 -9 0 -9 6 0 6
-4 8 -10 5 -12 -8 -12 -3 -1 27 7 20 6 24 -10 25 -12 1 -19 -5 -19 -15 0 -15
2 -15 10 -2 9 13 10 13 9 0 -2 -24 -17 -66 -18 -50 -1 12 -5 11 -16 -4 -8 -11
-15 -15 -15 -9 0 7 7 19 16 27 8 9 11 16 6 16 -5 0 -12 -3 -16 -7 -3 -4 -14
-8 -22 -9 -11 -2 -14 3 -11 17 3 10 1 19 -4 19 -5 0 -9 -6 -10 -12 0 -10 -2
-10 -6 0 -2 6 -11 12 -19 12 -9 0 -12 5 -9 10 7 11 -8 14 -18 4 -9 -9 4 -35
14 -28 5 3 16 -1 24 -10 21 -21 19 -32 -3 -13 -10 10 -22 14 -25 11 -4 -4 -9
1 -13 10 -3 9 -12 16 -18 16 -18 0 -66 24 -66 33 0 5 -4 6 -9 3 -14 -9 -42 5
-34 18 4 7 1 7 -7 -1 -9 -9 -17 -9 -26 -2 -8 7 -14 6 -19 -1 -4 -7 1 -14 13
-17 11 -2 19 -12 17 -21 -1 -10 0 -12 2 -6 2 6 15 12 28 12 14 0 22 -4 19 -9
-3 -5 2 -9 11 -9 12 0 15 -6 10 -21 -5 -14 -2 -25 6 -30 11 -7 11 -9 -3 -9 -9
0 -19 -6 -22 -12 -3 -7 -4 5 -1 27 4 37 3 38 -7 15 -7 -14 -13 -26 -14 -28 -5
-9 -34 13 -35 27 0 11 -3 8 -10 -7 -5 -14 -13 -20 -20 -16 -8 5 -9 3 -5 -5 5
-7 14 -10 22 -7 8 3 17 -1 20 -9 4 -8 17 -15 30 -15 13 0 24 -5 24 -11 0 -6
-7 -8 -16 -5 -9 3 -25 6 -35 6 -11 0 -17 5 -14 10 3 6 -3 10 -14 10 -12 0 -21
-4 -21 -10 0 -5 5 -10 10 -10 6 0 10 -13 10 -30 0 -16 -5 -30 -11 -30 -5 0 -7
5 -4 10 3 6 2 10 -4 10 -5 0 -13 -9 -16 -21 -9 -29 -17 -17 -10 14 5 17 12 24
21 20 8 -3 14 0 14 6 0 6 -6 11 -12 12 -7 0 -21 2 -30 4 -10 2 -20 -1 -24 -6
-3 -5 -10 -9 -16 -9 -7 0 -6 5 1 14 10 12 8 17 -11 27 -21 11 -22 11 -9 -4 10
-12 10 -17 2 -17 -14 0 -47 -30 -44 -39 1 -3 -7 -5 -18 -3 -10 2 -22 -4 -25
-12 -3 -9 -16 -16 -28 -16 -21 -1 -21 -1 -2 -15 13 -10 22 -11 26 -4 4 6 18 7
33 4 23 -6 25 -9 15 -31 -6 -14 -14 -21 -17 -16 -8 12 -71 42 -87 42 -8 0 -11
-8 -9 -20 2 -12 -2 -23 -10 -27 -8 -3 -12 -9 -9 -14 3 -5 -2 -9 -10 -9 -9 0
-16 -4 -16 -10 0 -5 5 -10 12 -10 6 0 9 -2 6 -5 -10 -11 -37 7 -31 21 3 8 -1
14 -10 14 -8 0 -18 6 -20 13 -3 6 -6 2 -6 -10 -1 -22 -21 -44 -21 -23 0 7 -6
10 -12 7 -7 -2 -18 3 -24 11 -9 12 -11 12 -11 -4 0 -11 5 -22 11 -26 8 -5 7
-8 -2 -8 -7 0 -17 12 -23 26 -9 26 -10 26 -25 8 -9 -10 -13 -13 -9 -6 3 6 0
12 -7 13 -7 0 -22 2 -33 5 -58 11 -309 8 -301 -4 3 -5 -14 -6 -37 -3 -52 8
-80 3 -70 -12 4 -7 -1 -6 -11 2 -14 12 -19 12 -26 2 -4 -8 -13 -10 -19 -6 -7
4 -19 1 -28 -6 -8 -8 -31 -19 -49 -25 -29 -10 -34 -9 -34 4 0 14 -1 14 -12 0
-15 -18 -93 -50 -102 -41 -3 4 -6 0 -6 -7 0 -7 -3 -11 -6 -8 -6 6 -15 -1 -67
-47 -18 -16 -29 -19 -41 -13 -9 5 -14 13 -11 19 4 5 1 9 -5 9 -7 0 -10 -6 -7
-14 3 -7 -4 -21 -15 -30 -11 -10 -17 -24 -14 -32 3 -9 -1 -14 -12 -15 -11 0
-13 -2 -4 -6 9 -3 2 -13 -20 -28 -23 -16 -35 -19 -40 -11 -6 8 -8 8 -8 -1 0
-17 -86 -65 -116 -65 -13 0 -27 -5 -30 -9 -3 -5 -11 -6 -17 -2 -6 4 -18 8 -27
9 -30 3 -45 9 -58 24 -9 10 -11 10 -6 1 5 -10 1 -11 -16 -6 -19 6 -22 4 -16
-10 6 -16 4 -16 -11 -4 -16 13 -17 12 -4 -3 7 -10 37 -29 65 -43 l53 -26 58
36 c32 19 65 35 72 35 7 0 13 4 13 8 0 4 15 13 33 20 17 6 57 31 87 54 79 60
239 133 355 162 153 38 365 52 475 30 61 -12 84 -16 103 -15 9 0 17 -4 17 -9
0 -5 7 -7 15 -4 8 4 15 1 15 -5 0 -6 7 -8 15 -5 12 5 14 2 8 -12 -6 -16 -4
-17 9 -6 12 10 22 10 44 1 16 -7 36 -13 44 -15 8 -2 16 -7 18 -12 2 -6 12 -8
22 -5 11 3 20 0 20 -6 0 -5 6 -8 14 -5 19 7 28 -22 10 -36 -11 -10 -14 -9 -15
6 0 11 -3 14 -6 7 -5 -14 -24 -18 -22 -5 3 19 -2 25 -11 12 -6 -9 -10 -11 -10
-3 0 7 -7 10 -17 6 -10 -4 -14 -2 -10 4 4 6 0 13 -8 17 -8 3 -15 1 -15 -4 0
-18 -20 -10 -21 8 0 9 -3 12 -5 6 -4 -10 -122 12 -134 25 -3 4 -81 8 -175 9
-196 4 -288 -9 -449 -65 -127 -43 -269 -120 -303 -163 -6 -8 -20 -15 -30 -15
-10 0 -17 -6 -16 -12 2 -7 0 -12 -5 -12 -19 3 -30 -2 -34 -18 -6 -20 -68 -60
-68 -44 0 5 9 13 20 16 22 7 26 20 10 30 -6 4 -9 3 -8 -2 2 -4 0 -8 -3 -8 -13
0 -156 -156 -211 -229 -59 -79 -135 -224 -158 -303 -9 -28 -17 -40 -26 -36
-15 6 -19 33 -5 33 17 0 20 41 3 47 -14 4 -55 21 -70 29 -1 1 1 9 5 19 6 18 7
18 13 -1 6 -16 10 -13 24 20 19 45 19 46 7 46 -5 0 -13 -9 -16 -21 -4 -11 -9
-18 -12 -16 -2 3 3 19 12 37 9 18 14 34 12 36 -6 6 -41 -61 -56 -108 -7 -20
-19 -42 -28 -50 -14 -11 -16 -11 -10 4 3 10 2 20 -4 23 -5 4 -7 11 -4 16 4 5
2 9 -2 9 -14 0 -33 60 -20 60 15 1 -40 50 -54 50 -6 0 -13 -9 -16 -20 -4 -14
-12 -20 -26 -18 -11 2 -21 -3 -23 -10 -1 -7 0 -8 2 -3 6 12 34 3 34 -10 0 -5
-8 -9 -17 -9 -12 0 -14 -3 -6 -8 9 -6 7 -25 -7 -77 -11 -39 -20 -74 -20 -80 0
-5 -5 -3 -10 5 -8 13 -10 12 -10 -2 0 -10 4 -18 9 -18 4 0 6 -11 3 -25 -3 -19
-8 -23 -17 -15 -8 7 -12 5 -12 -5 0 -8 5 -15 11 -15 6 0 4 -5 -4 -10 -10 -6
-11 -10 -2 -10 6 0 12 -4 12 -10 0 -5 -7 -7 -15 -3 -9 3 -15 2 -14 -3 5 -28
-3 -54 -16 -54 -8 0 -16 -4 -16 -10 -1 -5 -2 -14 -3 -19 0 -5 -4 -12 -8 -16
-3 -4 -5 1 -3 12 2 10 4 33 4 52 1 25 5 32 16 27 8 -3 15 -1 15 4 0 6 -4 10
-10 10 -5 0 -10 12 -9 28 0 15 3 21 6 15 7 -18 23 -16 23 2 0 8 -4 15 -10 15
-5 0 -10 4 -10 9 0 4 12 7 28 5 15 -2 19 -1 10 2 -10 3 -18 10 -18 15 0 6 -5
7 -11 3 -8 -4 -8 -1 -1 12 6 11 10 21 9 24 -1 13 15 80 19 80 3 0 15 -5 27
-11 18 -9 20 -9 10 1 -13 14 -6 43 8 34 5 -3 9 0 9 6 0 7 -7 10 -15 7 -8 -4
-17 -2 -21 4 -7 12 15 69 27 69 5 0 6 7 3 15 -4 9 0 15 9 15 21 0 31 17 16 26
-8 4 -9 3 -5 -4 4 -7 2 -12 -3 -12 -6 0 -11 7 -11 15 0 8 -5 15 -11 15 -6 0
-9 -9 -6 -20 4 -17 1 -19 -26 -17 -30 2 -31 0 -55 -70 -13 -40 -27 -71 -32
-68 -4 2 -5 -7 -2 -20 3 -19 0 -25 -14 -25 -14 0 -15 -3 -6 -8 10 -7 10 -20 1
-60 -6 -29 -15 -50 -20 -46 -13 8 -11 -10 4 -25 10 -11 9 -13 -3 -9 -12 4 -16
-2 -18 -23 -1 -16 2 -29 8 -29 7 0 8 -6 2 -17 -5 -10 -7 -25 -4 -33 4 -12 3
-13 -10 -2 -13 10 -16 10 -15 0 1 -37 -4 -59 -13 -53 -5 3 -10 1 -10 -4 0 -6
-5 -11 -11 -11 -7 0 -9 26 -7 73 3 71 3 72 -23 75 -30 4 -33 -7 -45 -165 -4
-57 -11 -93 -18 -93 -6 0 -4 -5 4 -10 13 -9 13 -11 0 -20 -11 -7 -12 -10 -2
-10 16 0 13 -51 -3 -62 -6 -5 -2 -8 8 -8 13 0 17 -9 17 -40 0 -22 -5 -40 -11
-40 -6 0 -3 -7 5 -16 9 -8 16 -27 16 -42 0 -15 3 -36 6 -47 4 -15 -2 -25 -20
-35 -14 -7 -24 -15 -22 -17 2 -3 14 1 26 7 13 7 20 7 16 2 -3 -6 -1 -12 5 -14
7 -2 12 -24 13 -49 l1 -45 38 3 c35 3 51 -10 25 -20 -10 -4 -10 -6 -1 -6 19
-1 24 15 13 44 -9 24 -8 26 7 21 10 -4 14 -4 10 0 -4 4 -2 13 4 21 9 9 8 13 0
13 -6 0 -11 6 -11 14 0 17 18 31 28 21 3 -3 0 -10 -8 -15 -11 -7 -12 -10 -2
-10 9 0 11 -7 7 -20 -4 -13 -2 -20 7 -20 8 0 6 -5 -5 -11 -14 -8 -17 -18 -12
-40 6 -26 3 -31 -24 -40 -17 -6 -31 -15 -31 -21 0 -5 -5 -6 -11 -2 -8 5 -8 1
0 -14 8 -15 8 -22 -2 -25 -7 -3 -5 -6 6 -6 24 -1 22 -21 -3 -21 -14 0 -21 9
-26 35 -7 37 -4 52 9 47 5 -1 6 2 2 8 -5 8 -11 8 -20 0 -10 -8 -11 -20 -3 -46
5 -20 7 -38 4 -41 -5 -5 -51 134 -67 204 -7 33 -6 49 2 59 9 12 9 13 -3 9 -15
-6 -22 22 -35 140 -9 90 -3 301 12 389 9 53 14 104 11 112 -3 8 -2 13 3 10 4
-3 17 31 28 74 11 44 16 80 11 80 -5 0 -2 7 6 16 21 21 20 29 -4 31 -18 2 -26
-17 -21 -49 0 -5 -3 -8 -7 -8 -5 0 -15 -23 -22 -51 -8 -27 -18 -53 -22 -55 -5
-3 -5 -10 -2 -16 4 -6 2 -13 -4 -17 -8 -5 -7 -15 2 -33 12 -23 12 -26 0 -21
-10 4 -14 -3 -16 -23 0 -16 -2 -33 -3 -39 -2 -5 -3 -23 -4 -38 -1 -20 -5 -26
-13 -21 -9 5 -9 2 1 -9 8 -11 9 -17 3 -17 -6 0 -9 -7 -5 -16 3 -9 0 -20 -8
-25 -12 -7 -12 -9 0 -9 9 0 11 -6 6 -17 -9 -22 -9 -195 -1 -240 4 -23 2 -33
-6 -33 -10 0 -10 -2 0 -8 7 -5 15 -33 18 -63 3 -29 14 -90 24 -134 14 -60 16
-82 7 -87 -8 -5 -7 -8 3 -8 11 0 21 -21 34 -67 27 -104 99 -266 170 -386 50
-84 61 -110 50 -114 -8 -3 -18 -3 -21 1 -4 3 1 6 11 6 9 0 15 4 11 10 -7 11
-36 2 -50 -15 -8 -10 -13 -9 -24 2 -11 12 -11 14 0 13 20 -3 59 11 59 21 0 5
-12 4 -26 -1 -16 -7 -23 -7 -19 0 3 6 13 10 21 10 12 0 12 4 4 20 -6 11 -15
18 -20 15 -6 -3 -7 1 -4 10 5 12 2 14 -12 8 -28 -10 -54 -42 -47 -59 3 -9 -1
-14 -13 -14 -16 0 -17 2 -4 10 13 9 13 10 0 10 -9 0 -11 3 -5 8 6 4 16 15 24
24 12 16 10 17 -30 12 -24 -3 -49 -7 -55 -9 -6 -2 -36 48 -68 110 -53 108
-102 241 -141 386 -14 55 -21 67 -45 76 -22 8 -27 8 -26 -3 1 -7 6 -17 11 -21
4 -4 5 -2 1 5 -4 6 -2 12 3 12 14 0 14 -17 1 -25 -6 -4 -18 -1 -27 7 -15 12
-15 11 -5 -8 12 -22 9 -28 -27 -49 -10 -6 -12 -4 -7 6 4 8 1 6 -7 -3 -8 -10
-17 -15 -21 -11 -4 4 -4 0 0 -10 5 -13 2 -16 -10 -11 -12 5 -15 2 -9 -12 5
-14 3 -16 -11 -11 -14 6 -17 3 -12 -8 3 -9 2 -13 -4 -10 -5 3 -17 -6 -26 -20
-16 -24 -43 -37 -28 -13 4 7 3 8 -4 4 -6 -4 -9 -13 -5 -21 4 -11 1 -13 -13 -8
-11 4 -15 3 -11 -4 4 -6 -5 -23 -18 -39 -14 -16 -25 -33 -25 -38 0 -4 -8 -6
-18 -4 -12 4 -18 -1 -19 -13 -2 -22 -30 -53 -56 -62 -10 -4 -17 -12 -15 -19 5
-13 -34 -58 -51 -58 -6 0 -10 -6 -8 -12 1 -7 -4 -12 -12 -10 -12 3 -12 1 0
-14 12 -16 12 -17 -3 -12 -11 5 -20 -2 -29 -23 -6 -17 -26 -45 -44 -63 -17
-18 -30 -37 -28 -43 2 -6 -3 -20 -12 -30 -8 -10 -16 -22 -16 -28 -1 -18 -21
-35 -32 -28 -6 3 -7 1 -3 -5 7 -12 -11 -46 -29 -53 -5 -2 -8 -12 -7 -21 2 -11
-3 -18 -12 -18 -10 0 -13 -6 -10 -15 4 -8 1 -15 -7 -15 -7 0 -9 -3 -6 -7 4 -3
0 -17 -8 -30 -9 -13 -13 -28 -10 -33 3 -6 2 -10 -3 -10 -11 0 -33 -80 -26 -92
3 -4 1 -8 -4 -8 -6 0 -6 -18 -1 -47 20 -108 107 -140 287 -108 181 33 448 128
661 235 167 84 416 222 431 240 3 4 41 28 85 55 186 113 470 311 677 471 109
85 140 96 151 53 3 -10 2 -17 -2 -14 -7 3 -241 -166 -356 -257 -16 -12 -32
-23 -36 -23 -4 0 -18 -9 -31 -20 -13 -11 -26 -22 -30 -23 -29 -10 -37 -15 -33
-22 5 -8 -40 -50 -55 -50 -6 0 -10 -4 -10 -10 0 -5 -5 -10 -11 -10 -6 0 -8 7
-5 16 3 8 2 12 -4 9 -6 -3 -10 -15 -10 -25 0 -10 -5 -22 -11 -26 -8 -4 -9 1
-5 17 6 21 5 22 -4 6 -7 -10 -9 -25 -6 -34 6 -14 4 -14 -11 -2 -15 12 -16 12
-10 -5 6 -16 5 -17 -7 -7 -19 16 -39 4 -32 -16 5 -11 2 -13 -10 -9 -12 5 -15
2 -10 -11 5 -15 3 -14 -10 2 -16 19 -16 19 -11 -8 4 -27 4 -27 -14 -11 -18 16
-19 16 -19 1 0 -10 -7 -17 -15 -17 -10 0 -12 -6 -8 -17 6 -16 5 -17 -12 -3
-16 14 -17 13 -11 -6 4 -14 2 -21 -8 -21 -9 0 -13 4 -11 8 3 4 -1 9 -9 12 -11
4 -13 -4 -12 -34 1 -21 -1 -39 -6 -39 -4 0 -8 6 -8 13 0 7 -9 18 -20 25 -11 7
-20 9 -19 5 1 -5 1 -15 0 -23 -1 -13 -2 -13 -11 0 -8 13 -10 12 -10 -4 0 -13
-5 -16 -16 -12 -12 4 -15 2 -10 -9 7 -18 -10 -20 -18 -2 -3 6 -3 -1 -1 -18 2
-16 4 -33 4 -37 2 -18 20 -6 24 15 3 16 5 13 6 -10 0 -20 11 -42 26 -58 14
-14 21 -25 16 -25 -6 0 -9 -6 -7 -12 1 -7 1 -10 -1 -6 -3 4 -4 10 -3 14 2 10
-42 44 -51 38 -5 -3 -9 0 -9 6 0 7 7 9 18 5 9 -3 2 8 -17 24 -19 17 -29 31
-23 31 6 0 9 7 6 15 -5 13 -8 13 -21 -1 -14 -14 -13 -17 6 -35 11 -11 21 -23
21 -27 0 -4 -14 8 -30 25 l-29 33 5 -33 c4 -28 3 -29 -5 -9 -14 29 -18 28 -16
-5 1 -16 0 -20 -2 -10 -4 14 -7 16 -19 6 -8 -6 -14 -18 -14 -25 0 -17 -17 -18
-23 -1 -3 6 -6 3 -6 -8 -1 -11 -5 -16 -9 -10 -4 6 -16 17 -27 25 -20 15 -20
14 -1 -8 23 -26 16 -40 -8 -17 -19 19 -22 6 -3 -14 8 -10 8 -12 0 -7 -6 3 -14
2 -18 -3 -3 -6 -12 -8 -19 -5 -7 3 -16 -2 -19 -10 -4 -9 -13 -13 -20 -10 -9 3
-16 -3 -20 -15 -5 -19 -35 -28 -70 -22 -5 1 -6 -2 -4 -6 3 -5 -1 -13 -8 -20
-10 -9 -15 -9 -17 -1 -3 7 -9 6 -19 -4 -8 -8 -20 -13 -28 -10 -8 3 -11 0 -7
-6 3 -6 2 -13 -4 -17 -5 -3 -10 0 -10 7 -1 9 -5 7 -14 -4 -10 -14 -15 -15 -25
-5 -10 9 -12 9 -9 -3 2 -8 -3 -14 -9 -13 -7 2 -13 -1 -13 -6 0 -5 -12 -12 -27
-17 -36 -9 -32 -8 -73 -26 -61 -26 -75 -31 -82 -30 -5 1 -8 -3 -8 -9 0 -5 -4
-8 -9 -5 -5 3 -26 -1 -46 -10 -21 -8 -46 -13 -57 -11 -10 3 -16 1 -13 -3 3 -5
-14 -11 -36 -15 -23 -4 -57 -14 -76 -21 -19 -8 -38 -12 -43 -9 -5 3 -11 1 -15
-4 -3 -6 -12 -8 -20 -4 -8 3 -15 1 -15 -5 0 -10 -42 -8 -62 4 -9 5 -8 1 2 -11
15 -19 14 -19 -14 -1 -16 10 -26 14 -23 9 4 -6 -11 -10 -33 -10 -22 0 -40 5
-40 11 0 6 -5 5 -12 -2 -15 -15 -32 -16 -22 -1 4 8 -1 9 -16 4 -17 -5 -21 -4
-15 6 6 9 3 11 -8 6 -22 -8 -49 2 -40 16 4 6 0 8 -10 4 -12 -4 -17 -1 -17 11
0 14 -2 14 -9 3 -7 -11 -12 -8 -26 12 -24 37 -36 99 -30 153 31 254 375 726
757 1039 82 66 85 70 77 99 -14 50 -22 365 -10 451 19 147 28 203 47 280 103
426 374 840 723 1104 343 260 693 398 1126 445 61 6 315 -3 397 -14z m-2534
-482 c-43 -65 -159 -271 -177 -315 -7 -18 -17 -33 -21 -33 -3 0 -7 -6 -7 -12
0 -7 -23 -69 -50 -138 -27 -69 -58 -155 -68 -192 -10 -38 -22 -68 -26 -68 -5
0 -6 -7 -3 -15 4 -8 1 -15 -6 -15 -7 0 -10 -7 -6 -16 3 -9 3 -21 -1 -27 -7
-12 -13 -40 -14 -69 0 -9 -7 -19 -15 -22 -13 -5 -14 0 -9 27 24 118 132 434
181 528 8 16 14 31 14 34 1 14 83 165 91 165 5 0 8 3 8 8 -4 21 2 32 13 26 8
-5 9 -2 5 9 -3 10 -2 17 4 17 6 0 7 5 3 12 -4 7 -3 8 4 4 8 -5 12 0 12 14 0
11 7 23 15 26 8 4 12 10 9 15 -3 5 0 9 7 9 7 0 10 3 7 6 -4 3 1 14 10 23 10
10 24 27 31 39 8 12 17 19 19 17 3 -2 -11 -28 -30 -57z m4943 35 c58 -26 119
-80 119 -105 0 -12 4 -17 12 -12 8 5 9 0 6 -14 -4 -12 -3 -22 0 -22 4 0 7 -16
7 -35 0 -19 -4 -35 -9 -35 -5 0 -3 -7 4 -15 10 -12 10 -15 0 -15 -8 0 -10 -8
-7 -21 4 -15 2 -19 -8 -15 -11 4 -12 0 -5 -19 8 -20 7 -23 -8 -18 -15 6 -16 5
-2 -12 13 -17 13 -18 -1 -13 -13 5 -16 2 -11 -14 3 -14 1 -19 -6 -14 -7 4 -12
1 -12 -8 0 -9 -6 -16 -12 -17 -10 0 -10 -2 0 -6 6 -2 12 -9 12 -15 0 -6 -7 -8
-14 -5 -11 4 -13 1 -9 -10 5 -12 3 -14 -8 -8 -11 7 -11 5 1 -10 14 -17 13 -18
-2 -12 -16 6 -23 -3 -19 -25 0 -5 -4 -8 -10 -8 -6 0 -8 -7 -5 -16 6 -15 4 -15
-19 0 -21 14 -24 14 -19 1 4 -8 10 -15 15 -15 5 0 9 -4 9 -10 0 -5 -6 -7 -14
-4 -11 4 -13 0 -9 -16 4 -15 0 -23 -14 -26 -10 -3 -23 -15 -28 -26 -6 -11 -14
-20 -20 -19 -11 2 -11 15 0 46 3 11 -1 7 -10 -8 -13 -23 -14 -31 -4 -44 11
-13 10 -18 -6 -29 -10 -8 -23 -14 -28 -14 -4 0 -5 -5 -1 -12 5 -7 2 -9 -9 -5
-12 4 -14 2 -10 -10 5 -13 2 -15 -12 -10 -15 6 -16 5 -5 -8 10 -12 10 -15 -4
-15 -9 0 -15 -3 -14 -7 2 -5 -1 -9 -6 -10 -5 -1 -12 -7 -17 -14 -6 -10 -13 -9
-31 6 l-23 20 18 -21 c22 -27 22 -28 -14 -65 -18 -18 -36 -28 -45 -25 -9 3
-12 2 -8 -5 8 -14 -36 -61 -53 -55 -7 3 -10 -1 -6 -10 4 -10 0 -12 -13 -7 -12
4 -15 3 -10 -5 9 -14 -40 -66 -54 -57 -6 3 -10 -1 -10 -10 0 -9 -4 -13 -10
-10 -5 3 -10 2 -10 -4 0 -6 -7 -7 -17 -4 -11 4 -14 3 -9 -5 7 -11 -15 -43 -29
-42 -21 1 -25 -1 -20 -10 3 -5 1 -10 -5 -10 -6 0 -8 -4 -5 -10 3 -6 -1 -7 -10
-4 -10 4 -15 2 -13 -6 2 -7 -3 -15 -10 -17 -8 -3 -10 1 -5 14 3 10 3 15 -1 11
-4 -3 -8 -13 -10 -21 -2 -18 -32 -48 -40 -40 -3 4 -6 0 -6 -7 0 -9 -7 -7 -22
6 -19 16 -20 16 -9 1 20 -26 6 -32 -18 -8 -24 24 -29 16 -6 -9 13 -15 13 -19
-1 -36 -8 -10 -13 -14 -10 -8 3 6 -1 11 -8 11 -8 0 -12 -9 -10 -21 3 -12 2
-15 -2 -8 -9 19 -24 14 -17 -5 3 -10 -6 -3 -21 16 -14 19 -26 31 -26 26 0 -5
7 -17 17 -27 13 -14 13 -18 2 -18 -11 0 -11 -2 -1 -9 10 -6 10 -10 -3 -21 -12
-10 -15 -10 -15 3 0 9 -5 19 -12 23 -8 5 -9 2 -5 -9 3 -10 2 -17 -3 -17 -6 0
-10 -5 -10 -11 0 -5 5 -7 10 -4 6 3 10 2 10 -3 0 -5 -13 -15 -30 -22 -16 -7
-30 -16 -30 -21 0 -5 -8 -6 -17 -2 -10 3 -15 3 -11 -2 4 -4 -3 -15 -14 -25
-20 -16 -23 -16 -37 -1 -9 9 -13 12 -8 7 4 -6 7 -19 7 -31 -1 -20 -1 -20 -17
0 -15 20 -15 20 -10 -3 3 -12 1 -20 -4 -16 -5 3 -9 1 -9 -5 0 -6 -7 -8 -15 -5
-9 4 -18 -2 -24 -17 -5 -13 -10 -18 -10 -11 -1 7 -6 10 -11 7 -6 -4 -8 -11 -4
-16 3 -5 2 -9 -3 -8 -25 4 -42 -3 -48 -22 -4 -11 -9 -18 -12 -15 -10 10 -34
-24 -27 -36 6 -10 3 -9 -9 0 -13 12 -18 11 -28 -6 -7 -12 -19 -18 -27 -14 -10
3 -13 1 -8 -6 4 -7 2 -10 -7 -6 -18 6 -41 -21 -31 -38 4 -7 4 -10 -1 -6 -4 4
-14 0 -22 -8 -9 -8 -22 -13 -29 -10 -8 3 -14 -2 -15 -12 0 -9 -3 -12 -5 -5 -3
7 -12 9 -20 6 -7 -3 -12 -8 -9 -13 6 -10 -39 -47 -52 -43 -6 2 -15 -1 -19 -8
-5 -8 -3 -9 6 -4 9 6 11 4 6 -4 -5 -7 -14 -10 -22 -7 -8 3 -14 1 -14 -5 0 -6
-4 -7 -10 -4 -5 3 -10 1 -10 -4 0 -6 -6 -11 -14 -11 -7 0 -16 -9 -19 -21 -3
-12 -10 -19 -15 -16 -4 4 -21 -1 -36 -8 -16 -8 -33 -12 -40 -8 -6 4 -6 0 2 -9
9 -11 10 -18 2 -23 -5 -3 -10 -1 -10 4 0 6 -4 11 -9 11 -6 0 -8 -9 -6 -19 3
-14 -1 -18 -11 -14 -8 3 -14 10 -14 16 0 6 -3 7 -6 4 -4 -4 -1 -13 6 -22 11
-13 10 -14 -5 -9 -14 6 -16 4 -10 -6 5 -9 4 -11 -3 -6 -7 4 -12 2 -12 -4 0 -6
-4 -8 -10 -5 -5 3 -10 1 -10 -6 0 -8 -9 -5 -22 7 -13 10 -17 12 -10 4 13 -16
16 -31 5 -28 -5 2 -8 0 -8 -4 0 -4 -11 -15 -24 -24 -23 -17 -25 -16 -43 5 -10
13 -18 18 -18 13 0 -6 5 -14 10 -17 17 -10 11 -25 -7 -18 -13 5 -15 2 -10 -12
7 -16 6 -16 -16 -2 -23 15 -24 15 -21 -9 2 -22 0 -23 -14 -12 -13 11 -15 11
-9 -4 4 -12 2 -15 -7 -12 -8 3 -16 -4 -19 -16 -3 -13 -10 -19 -17 -15 -6 3
-18 -2 -28 -12 -9 -11 -15 -14 -12 -8 3 6 -3 2 -12 -8 -10 -11 -18 -16 -18
-12 0 5 -8 1 -17 -8 -10 -8 -67 -41 -127 -71 -86 -44 -112 -54 -123 -44 -18
15 -17 16 107 90 263 158 837 542 1183 791 55 40 118 85 141 101 22 16 43 31
46 35 3 3 48 39 100 78 95 72 114 88 264 218 123 107 270 260 351 366 200 262
207 420 20 475 -56 16 -224 16 -305 0 -19 -4 -41 -8 -47 -8 -7 -1 -13 -5 -13
-9 0 -5 -7 -6 -15 -3 -14 6 -122 -23 -183 -48 -15 -6 -32 -12 -39 -14 -7 -1
-26 -9 -43 -17 -17 -9 -28 -12 -26 -8 3 4 -1 8 -8 8 -8 0 -12 -7 -8 -15 4 -12
0 -14 -16 -10 -12 4 -26 0 -33 -8 -6 -7 -26 -16 -45 -20 -19 -3 -34 -9 -34
-13 0 -4 -29 -18 -65 -32 -36 -13 -65 -27 -65 -31 0 -5 -9 -8 -20 -8 -11 0
-20 -6 -20 -14 0 -8 -4 -17 -9 -20 -5 -4 -7 3 -4 14 3 12 0 20 -6 20 -7 0 -9
-5 -5 -12 5 -8 2 -9 -10 -5 -14 5 -15 3 -6 -13 17 -31 11 -37 -10 -10 -12 15
-18 18 -14 8 7 -20 -12 -25 -19 -5 -3 6 -6 -1 -6 -16 -1 -16 -5 -26 -11 -22
-6 3 -17 -1 -26 -10 -9 -9 -23 -14 -32 -10 -13 5 -13 3 -1 -11 13 -16 12 -16
-9 -5 -12 6 -22 8 -21 4 1 -4 1 -15 0 -23 -1 -12 -5 -11 -17 5 -16 20 -16 19
-9 -4 5 -16 4 -21 -4 -17 -6 4 -14 0 -17 -8 -3 -9 -10 -13 -15 -10 -5 3 -12
-1 -15 -10 -3 -8 -12 -12 -20 -9 -8 3 -14 0 -14 -6 0 -6 -4 -11 -10 -11 -12 0
-179 -117 -322 -224 -58 -45 -119 -90 -134 -101 -16 -11 -47 -36 -69 -55 -22
-20 -62 -53 -89 -75 -27 -21 -75 -63 -107 -92 -51 -48 -61 -53 -79 -43 -12 6
-20 17 -18 24 4 19 421 356 538 436 19 13 67 47 105 75 69 51 307 212 375 253
214 130 539 256 765 296 121 21 327 16 386 -11z m-5156 -261 c-36 -71 -65
-133 -65 -138 0 -5 -7 -21 -14 -36 -19 -35 -96 -265 -96 -284 0 -8 -5 -14 -10
-14 -6 0 -10 -6 -9 -12 4 -23 -13 -88 -23 -88 -5 0 -6 -9 -3 -20 3 -11 2 -20
-4 -20 -5 0 -8 -9 -6 -20 2 -11 0 -20 -6 -20 -14 0 -11 15 16 120 62 233 144
440 249 629 58 106 36 32 -29 -97z m585 7 c0 -5 -15 -32 -34 -61 -18 -29 -50
-84 -69 -123 -20 -38 -37 -64 -37 -57 0 7 5 23 11 34 7 14 8 23 1 30 -12 12
-4 40 9 32 5 -3 7 -10 4 -15 -4 -5 -4 -9 -1 -9 3 0 12 13 20 28 12 23 12 29 1
29 -7 0 -11 -6 -8 -14 6 -16 -9 -17 -26 0 -10 8 -12 8 -7 0 3 -6 1 -15 -5 -18
-5 -4 -8 -13 -5 -20 2 -7 -2 -16 -11 -19 -14 -6 -14 -8 2 -20 13 -9 15 -15 7
-20 -7 -4 -16 -4 -22 -1 -5 3 -10 2 -10 -4 0 -5 6 -12 13 -14 7 -3 4 -6 -7 -6
-15 -1 -17 4 -12 27 11 44 28 82 37 82 5 0 8 3 7 8 -3 16 15 42 25 35 6 -4 8
0 4 10 -3 9 2 26 12 39 10 13 26 38 35 56 16 31 17 32 41 16 14 -9 25 -20 25
-25z m2125 -120 c115 -22 263 -78 244 -91 -10 -7 -8 -8 8 -5 26 6 40 -10 24
-26 -8 -8 -11 -8 -11 0 0 6 -6 11 -12 10 -37 -1 -48 5 -49 26 -1 18 -2 18 -6
4 -3 -13 -10 -16 -21 -12 -10 4 -32 9 -49 12 -19 3 -30 10 -26 16 3 6 1 7 -6
3 -7 -4 -20 -5 -29 -1 -35 15 -92 19 -272 20 -163 0 -194 -3 -265 -23 -44 -13
-96 -32 -115 -43 -32 -20 -35 -20 -47 -3 -22 31 -15 41 45 62 200 72 397 89
587 51z m-3975 -2 c14 -8 24 -19 22 -26 -1 -7 2 -10 7 -6 17 10 33 -36 28 -78
-12 -87 -104 -122 -166 -63 -17 16 -33 41 -36 56 -9 42 17 94 56 113 41 20 56
21 89 4z m1464 -120 c18 -13 16 -20 -25 -138 -42 -117 -46 -124 -69 -121 -35
5 -52 21 -48 46 4 28 47 34 65 10 7 -10 13 -13 13 -7 0 7 -4 14 -9 17 -5 4 -5
22 0 43 12 55 11 63 -9 63 -34 0 -32 12 7 51 22 20 37 40 33 43 -11 12 25 6
42 -7z m1522 -181 c3 -9 -25 -50 -73 -105 -44 -50 -95 -118 -115 -151 -31 -53
-37 -58 -53 -47 -16 13 -16 15 3 53 45 87 191 264 219 264 7 0 16 -6 19 -14z
m-1623 -193 c-7 -2 -13 -11 -13 -19 0 -9 4 -12 10 -9 6 3 7 -1 4 -9 -6 -15
-17 -20 -36 -17 -4 0 -5 -6 -1 -15 3 -9 1 -14 -7 -12 -7 2 -15 -4 -17 -12 -3
-10 -2 -11 4 -3 6 8 14 9 23 3 8 -6 10 -10 4 -10 -6 0 -11 -14 -11 -31 0 -18
-7 -37 -16 -44 -9 -7 -17 -18 -17 -26 0 -11 2 -11 10 1 5 8 10 10 10 4 0 -6
-3 -14 -7 -18 -4 -3 -8 -14 -9 -24 -1 -9 -7 -51 -14 -92 -17 -110 -17 -109
-19 -187 -1 -70 -2 -73 -25 -73 -13 0 -27 -6 -30 -12 -3 -7 -4 43 -2 112 5
137 23 248 63 383 23 78 30 90 57 102 17 7 36 13 41 13 6 0 4 -2 -2 -5z m2417
-185 c0 -10 2 -10 8 -1 6 9 22 9 72 -1 91 -19 137 -43 149 -78 6 -15 12 -28
15 -28 3 0 1 12 -4 26 l-10 25 31 -22 c20 -14 27 -25 21 -31 -15 -15 -3 -38
16 -31 14 5 13 2 -3 -14 -47 -48 -55 -61 -38 -67 8 -3 19 -4 24 0 5 3 9 -2 9
-11 0 -9 -5 -13 -11 -10 -6 4 -5 -2 2 -13 7 -12 16 -19 20 -17 3 3 5 -7 3 -20
-1 -14 2 -23 7 -19 5 3 9 0 9 -5 0 -6 -6 -11 -12 -12 -9 0 -9 -2 1 -6 11 -5
11 -7 0 -14 -10 -6 -8 -9 9 -9 16 0 21 4 16 13 -4 6 -3 9 1 4 15 -13 12 -46
-3 -52 -8 -3 -17 -3 -20 0 -3 3 0 5 6 5 7 0 12 5 12 11 0 6 -7 9 -14 6 -10 -4
-18 2 -22 16 -4 12 -6 23 -5 25 7 11 -110 108 -156 129 -135 63 -320 14 -407
-106 -51 -70 -70 -139 -63 -233 3 -54 2 -76 -5 -71 -7 3 -8 1 -4 -6 4 -6 11
-9 15 -7 4 3 15 -11 25 -31 25 -53 62 -98 106 -128 39 -27 51 -45 29 -45 -5 0
-7 5 -4 10 3 6 1 10 -4 10 -6 0 -11 -7 -11 -15 0 -8 6 -15 14 -15 8 0 16 -7
20 -15 4 -11 -6 -7 -31 9 -20 14 -40 23 -45 20 -5 -3 -8 -2 -7 3 3 20 -2 30
-16 30 -10 0 -14 -6 -10 -16 5 -12 3 -13 -6 -4 -13 13 -3 36 13 27 7 -4 8 -2
4 5 -4 6 -11 9 -16 6 -4 -3 -10 1 -13 7 -2 7 -4 -2 -5 -19 0 -18 4 -35 9 -38
16 -11 10 -25 -8 -18 -16 6 -17 5 -3 -12 14 -17 14 -17 -7 -5 -21 13 -38 70
-21 70 4 0 8 -12 8 -26 0 -14 4 -23 10 -19 6 3 6 15 0 29 -5 13 -7 26 -5 28 2
1 -10 3 -26 3 -22 1 -29 -4 -29 -18 0 -10 -5 -15 -10 -12 -6 4 -8 10 -5 15 3
4 -4 6 -15 3 -11 -3 -20 0 -20 6 0 6 -9 11 -19 11 -11 0 -23 4 -26 10 -4 6 1
7 10 3 15 -5 15 -3 4 15 -8 12 -16 17 -20 11 -3 -6 -12 4 -19 21 -11 27 -11
33 1 42 11 8 11 9 -3 4 -14 -4 -19 6 -28 50 -11 52 -12 178 -2 198 3 5 6 22 7
37 4 40 60 155 97 198 95 108 206 168 327 177 24 1 46 5 49 8 10 11 32 6 32
-6z m3720 -311 c0 -16 -17 -17 -270 -15 -201 2 -270 6 -270 15 0 17 53 20 312
19 211 -1 228 -2 228 -19z m-134 -304 c-3 -7 1 -10 9 -6 8 3 13 8 10 12 -7 12
29 9 44 -3 11 -8 13 -8 7 2 -4 6 -2 12 3 12 6 0 11 -6 12 -12 0 -10 2 -10 6 0
3 7 25 12 61 12 l57 0 -3 -45 -4 -45 -154 0 c-96 0 -154 4 -154 10 0 6 -5 10
-11 10 -5 0 -7 -4 -4 -10 4 -6 -25 -9 -82 -8 l-88 2 77 5 c75 6 76 6 61 26
-10 12 -14 14 -10 5 3 -11 -2 -16 -16 -18 -18 -1 -19 1 -7 9 13 8 13 11 -2 22
-15 12 -9 13 39 12 32 0 61 4 67 11 15 16 88 13 82 -3z m-536 -512 c0 -15 -40
-212 -55 -271 -34 -135 -79 -260 -146 -405 -47 -102 -69 -163 -70 -190 0 -22
-3 -33 -6 -25 -4 8 -12 20 -19 25 -24 19 -18 50 23 125 73 131 153 354 193
530 51 229 51 229 66 223 8 -3 14 -8 14 -12z m245 -283 c-4 -29 -10 -57 -14
-63 -5 -5 -12 -28 -16 -50 -10 -57 -69 -231 -122 -360 -61 -149 -82 -187 -95
-179 -7 4 -8 3 -4 -5 4 -6 -4 -35 -19 -64 -48 -92 -67 -119 -77 -109 -13 13 9
55 24 46 7 -4 8 -3 4 4 -9 15 38 95 49 85 4 -5 5 -3 1 4 -8 15 45 124 57 116
6 -3 7 -1 4 4 -4 6 12 53 34 104 48 111 117 309 149 432 13 48 25 87 27 87 2
0 1 -24 -2 -52z m-1401 -328 c-8 -35 -112 -180 -129 -180 -3 0 -3 6 0 13 4 6
-3 1 -15 -12 -14 -16 -17 -27 -10 -31 7 -5 6 -11 -4 -19 -8 -7 -16 -8 -18 -2
-1 5 -10 2 -18 -7 -13 -14 -12 -15 3 -9 9 3 17 3 17 -1 -1 -13 -71 -87 -80
-84 -6 1 -9 -4 -7 -10 1 -7 -4 -12 -11 -10 -6 1 -11 -4 -10 -10 2 -7 -3 -12
-10 -10 -6 1 -11 -1 -10 -5 5 -14 -26 -48 -91 -102 l-63 -52 -24 22 c-23 22
-33 59 -16 59 15 0 221 214 287 299 36 46 84 114 106 151 l40 68 35 -21 c28
-18 33 -26 28 -47z m1869 -72 c9 -11 17 -26 17 -33 0 -17 -46 -65 -62 -65 -7
0 -26 -33 -42 -73 -16 -39 -35 -77 -42 -83 -8 -6 -10 -15 -6 -20 4 -4 -1 -2
-10 5 -9 7 -22 10 -29 6 -14 -9 -5 24 21 75 26 51 50 138 43 155 -3 9 0 22 6
29 7 8 8 16 4 18 -4 3 -3 4 3 2 6 -1 17 2 25 7 19 12 50 2 72 -23z m-348 -316
c-8 -2 -15 -8 -15 -13 0 -6 5 -7 10 -4 6 3 10 4 10 0 0 -20 -188 -363 -257
-467 -81 -124 -95 -139 -108 -118 -6 10 99 183 107 175 3 -3 5 1 5 8 0 7 17
40 38 72 39 62 138 257 168 333 16 39 19 41 37 30 17 -10 18 -14 5 -16z m-967
-509 c-2 -13 3 -18 19 -17 13 1 20 -3 17 -7 -3 -5 -9 -7 -14 -4 -5 3 -11 1
-15 -5 -3 -5 3 -10 14 -10 22 0 41 -22 23 -28 -6 -2 -8 -10 -5 -17 4 -12 7
-12 19 0 11 11 12 19 4 35 -9 16 -8 18 5 14 10 -4 15 0 16 12 0 12 3 14 6 6 3
-7 -1 -19 -7 -27 -8 -10 -9 -15 -2 -15 6 0 16 8 22 18 6 9 10 12 8 6 -2 -7
-22 -32 -45 -58 -30 -31 -48 -44 -60 -40 -14 5 -15 4 -4 -4 17 -12 6 -32 -19
-32 -10 0 -22 -5 -25 -10 -4 -6 -10 -8 -14 -6 -4 3 -8 -1 -8 -9 0 -13 4 -13
26 1 14 8 -3 -11 -39 -44 -35 -33 -69 -58 -74 -55 -5 4 -6 2 -3 -4 4 -5 -7
-23 -23 -38 -17 -16 -30 -23 -30 -17 0 7 -5 12 -11 12 -6 0 -9 -7 -5 -15 3
-10 -28 -41 -102 -100 -215 -170 -435 -309 -687 -431 l-130 -63 -17 22 c-14
18 -19 20 -30 9 -11 -11 -10 -12 3 -7 10 4 19 0 23 -11 4 -9 5 -18 4 -19 -22
-15 -172 -66 -183 -61 -20 7 -19 26 1 26 9 0 12 -5 8 -12 -4 -8 -3 -10 2 -5 5
5 7 9 5 10 -8 4 20 47 30 47 6 0 7 -5 4 -10 -4 -6 4 -5 19 1 14 7 22 17 19 22
-5 8 -8 7 -11 -1 -2 -8 -9 -9 -21 -2 -10 5 -20 7 -23 5 -2 -2 -4 4 -4 14 0 10
5 17 12 14 7 -2 10 8 9 28 -2 27 0 30 10 16 15 -20 26 -22 19 -4 -7 19 22 40
46 34 13 -3 18 -1 13 6 -4 6 0 8 11 4 10 -4 23 1 33 12 9 11 22 17 30 14 7 -3
25 7 40 21 15 15 33 24 40 22 8 -3 11 -1 8 4 -3 6 -1 10 4 10 6 0 11 -6 12
-12 0 -7 4 -4 9 7 5 11 9 14 9 7 1 -7 6 -10 11 -7 6 4 7 12 4 18 -4 7 -4 9 0
5 4 -3 17 3 28 14 13 13 23 16 31 10 7 -5 20 -8 29 -7 11 2 15 -2 11 -11 -5
-13 -8 -13 -28 0 -14 9 -27 11 -36 5 -10 -6 -8 -9 11 -9 18 0 21 -3 12 -9 -11
-7 -11 -9 2 -14 9 -4 13 -13 10 -21 -3 -8 -1 -16 4 -20 11 -6 9 24 -3 43 -6
11 -4 13 9 8 12 -5 20 1 28 18 6 14 15 25 20 25 5 0 6 -5 2 -11 -3 -6 0 -15 7
-20 11 -7 11 -9 -2 -9 -9 0 -23 -7 -30 -17 -13 -15 -12 -15 8 -5 28 15 28 15
30 -8 1 -11 -4 -20 -11 -20 -7 0 -21 -7 -32 -15 -17 -13 -15 -13 16 -1 19 8
35 20 35 28 0 7 5 16 10 20 6 5 6 8 -2 8 -7 0 -1 11 12 24 15 15 22 31 19 40
-3 9 -1 16 5 16 6 0 11 -4 11 -10 0 -5 5 -10 11 -10 8 0 8 5 -1 15 -9 11 -9
15 -1 15 7 0 9 5 6 10 -4 6 -12 4 -21 -5 -9 -8 -20 -13 -25 -10 -9 6 -13 -8
-10 -32 2 -10 -4 -10 -24 -1 -14 6 -25 18 -25 27 0 11 3 12 8 4 5 -8 13 -9 22
-3 13 9 13 10 0 10 -13 0 -13 2 -1 9 8 5 20 7 28 4 9 -3 11 0 7 10 -5 13 -1
14 23 8 18 -5 28 -14 28 -27 1 -10 6 -18 13 -17 17 4 15 -14 -3 -21 -9 -3 -12
-12 -9 -23 5 -17 5 -17 -9 0 -8 10 -17 15 -19 10 -3 -4 3 -16 14 -25 10 -10
18 -14 18 -9 0 5 11 12 25 15 39 10 88 43 76 50 -6 4 -11 3 -11 -2 0 -15 -54
-9 -67 8 -18 22 -16 34 3 15 10 -9 20 -13 23 -8 15 20 70 52 76 44 3 -6 -2
-14 -10 -19 -15 -8 -15 -10 -1 -21 16 -14 36 -7 36 12 0 7 -4 6 -10 -3 -5 -8
-12 -11 -16 -7 -4 3 -2 13 4 20 7 8 8 18 4 22 -4 5 2 5 12 1 19 -7 19 -6 1 14
-20 22 -8 28 14 8 11 -11 13 -10 8 5 -4 11 -1 20 8 23 8 4 12 10 9 16 -3 5
-12 1 -18 -8 -9 -11 -18 -14 -27 -8 -8 4 -24 7 -36 5 -13 -1 -23 2 -23 7 0 16
29 35 45 28 10 -4 15 1 16 17 0 21 1 21 8 2 5 -11 4 -25 -1 -32 -7 -9 -7 -13
1 -13 6 0 11 5 11 11 0 6 9 8 20 4 11 -3 20 -2 20 3 0 5 -9 12 -20 15 -12 3
-20 13 -19 24 1 17 1 17 6 0 3 -14 12 -18 28 -15 16 4 22 1 18 -9 -3 -7 0 -13
7 -13 6 0 9 4 5 9 -3 5 -1 12 5 16 5 3 11 1 11 -4 1 -6 2 -15 3 -20 0 -5 5
-13 10 -18 6 -5 6 -2 1 6 -6 11 -4 13 8 8 11 -4 14 -2 10 8 -3 8 -9 13 -13 10
-8 -5 -22 36 -15 43 2 2 12 -1 22 -8 17 -11 17 -11 -2 -5 -15 5 -17 3 -8 -6 6
-6 17 -8 23 -4 8 5 9 10 1 18 -17 17 -13 31 4 17 13 -11 14 -10 9 5 -5 11 -4
16 3 12 5 -3 10 0 10 8 0 19 -5 19 -24 -1 -13 -13 -18 -13 -25 -2 -7 10 -8 8
-4 -4 4 -15 -1 -18 -25 -18 -19 0 -28 4 -24 11 4 6 14 8 22 5 8 -3 12 -2 10 2
-3 4 9 18 26 32 17 14 28 19 24 13 -6 -9 -1 -13 15 -13 18 0 20 2 8 10 -13 8
-12 10 4 10 15 0 17 -5 12 -25 -4 -16 -1 -34 9 -48 14 -20 15 -20 15 -2 0 17
2 17 10 5 5 -8 10 -10 10 -4 0 6 -8 18 -17 25 -11 10 -14 10 -9 2 4 -7 2 -13
-3 -13 -6 0 -11 7 -11 15 0 8 8 15 18 15 14 0 15 2 2 10 -8 5 -11 12 -7 16 4
4 0 12 -9 19 -14 10 -14 13 3 26 16 13 17 13 4 -3 -8 -11 -9 -18 -3 -18 12 0
26 19 27 35 0 6 9 9 19 7 13 -3 17 1 13 12 -4 9 1 19 11 25 9 5 55 47 101 93
46 46 79 76 72 67 -10 -14 -7 -18 24 -23 28 -6 35 -11 33 -26 -2 -11 2 -18 7
-17 6 1 9 7 7 13 -3 16 15 27 23 14 3 -5 1 -10 -6 -10 -7 0 -10 -2 -7 -5 8 -9
58 17 52 26 -3 5 2 9 10 9 9 0 16 4 16 10 0 6 -9 5 -24 -2 -27 -12 -61 -4 -51
12 4 7 12 7 25 0 14 -7 23 -6 34 5 17 17 30 20 21 5 -3 -5 -2 -10 2 -10 5 0
13 8 20 18 10 17 8 19 -15 16 -22 -3 -22 -2 5 6 38 12 53 30 24 30 -10 0 -27
3 -37 7 -12 4 -15 3 -10 -5 4 -7 3 -12 -2 -12 -14 0 -22 39 -10 47 7 3 8 1 4
-5 -4 -7 -1 -12 9 -12 9 0 14 4 11 9 -6 9 2 41 11 41 2 0 3 -8 1 -17z m-1253
-104 c-3 -8 -19 -20 -35 -27 -17 -8 -30 -18 -30 -24 0 -6 11 -3 25 6 14 9 30
14 35 11 6 -3 10 -1 10 4 0 6 5 11 10 11 75 0 -319 -179 -509 -231 -67 -18
-87 -20 -102 -11 -10 7 -19 8 -19 3 0 -5 5 -11 11 -13 8 -3 6 -9 -4 -20 -9 -8
-13 -18 -10 -22 4 -3 -3 -6 -14 -6 -11 0 -28 9 -38 20 -17 18 -17 21 -1 45 9
14 22 25 29 26 64 4 214 48 366 109 37 14 51 17 43 7 -10 -12 -8 -13 13 -9 14
2 25 9 25 14 0 5 -4 6 -10 3 -5 -3 -10 -2 -10 2 0 5 28 22 61 37 34 15 82 41
108 56 50 29 54 30 46 9z m-2400 -159 c-3 -6 0 -7 7 -5 8 3 49 -11 92 -30 43
-20 124 -52 179 -70 56 -19 101 -38 100 -43 -1 -6 7 -8 18 -5 19 5 20 4 10
-16 -7 -11 -16 -21 -22 -21 -6 0 -7 5 -3 11 4 8 -1 9 -17 4 -19 -5 -21 -4 -9
5 12 9 10 11 -10 6 -14 -3 -50 3 -80 14 -64 22 -54 26 13 6 35 -10 49 -11 54
-3 3 7 3 9 -2 5 -4 -4 -20 -1 -36 7 -15 8 -37 15 -48 15 -10 0 -22 6 -24 13
-4 9 -8 8 -16 -3 -9 -13 -16 -13 -63 4 -57 20 -208 92 -221 105 -5 5 -1 16 8
25 15 14 19 14 46 0 16 -8 27 -19 24 -24z"/>
<path d="M5213 6105 c-34 -14 -43 -32 -43 -80 0 -24 7 -39 22 -49 77 -54 165
34 108 106 -25 32 -49 39 -87 23z"/>
<path d="M4675 5973 c-55 -7 -180 -35 -200 -45 -28 -15 -28 -14 -16 -35 11
-22 46 -22 166 -3 147 24 165 26 180 18 12 -8 15 -2 15 32 l0 40 -57 -1 c-32
-1 -71 -4 -88 -6z"/>
<path d="M3948 5712 c-20 -4 -25 -22 -6 -22 6 0 8 -3 4 -7 -4 -5 -14 1 -22 11
-10 14 -14 16 -14 5 -1 -24 -26 -50 -44 -43 -9 3 -14 10 -11 15 3 4 12 6 19 3
19 -7 31 15 17 29 -8 8 -11 8 -11 -1 0 -7 -8 -12 -17 -10 -12 2 -18 -3 -18
-17 0 -11 -5 -23 -12 -28 -6 -4 -10 -21 -8 -40 5 -37 54 -87 85 -87 33 0 86
26 104 51 17 25 22 99 6 99 -5 0 -6 8 -3 18 6 15 5 15 -10 3 -15 -11 -17 -11
-17 2 0 17 -17 25 -42 19z"/>
<path d="M3604 5318 c-4 -6 4 -21 19 -34 15 -13 23 -26 17 -29 -5 -3 -18 3
-28 13 -12 12 -25 16 -38 11 -17 -6 -16 -7 6 -10 14 -3 24 -10 23 -17 -2 -6 6
-12 17 -12 18 0 18 -1 2 -29 -9 -16 -19 -28 -21 -25 -7 7 -41 -28 -41 -42 0
-7 -5 -16 -10 -19 -7 -4 -9 2 -5 17 8 29 -16 53 -44 45 -11 -3 -22 0 -23 5 -5
13 -48 -7 -48 -22 0 -4 11 -21 24 -37 13 -15 22 -36 20 -45 -1 -10 2 -18 7
-18 5 0 9 8 9 18 0 11 7 18 20 18 25 0 25 -1 1 -25 -10 -10 -21 -25 -24 -32
-5 -12 -7 -11 -17 1 -10 13 -11 13 -7 0 5 -20 37 -26 37 -6 0 20 19 31 33 17
8 -8 16 -6 29 6 15 13 20 14 33 3 11 -10 13 -15 4 -20 -8 -6 -8 -9 0 -14 19
-12 25 24 7 43 -9 10 -16 21 -16 26 0 4 8 -2 19 -14 15 -18 20 -19 25 -6 8 22
25 18 23 -5 -1 -13 -6 -19 -15 -15 -11 4 -13 -1 -10 -20 3 -13 1 -22 -4 -19
-4 3 -11 -3 -15 -13 -3 -10 -15 -30 -25 -45 -10 -15 -14 -29 -9 -32 5 -3 12 2
15 11 6 15 8 15 17 3 8 -11 9 -10 4 7 -3 13 -1 31 5 40 10 16 11 15 7 -5 -3
-12 -1 -20 4 -16 5 3 9 11 9 17 0 22 60 139 97 191 21 28 28 43 17 34 -16 -14
-23 -15 -32 -6 -9 9 -15 7 -27 -8 -12 -17 -12 -20 1 -30 13 -10 12 -15 -9 -38
-29 -31 -42 -34 -25 -7 7 11 16 17 20 15 4 -3 8 1 8 9 0 8 -13 20 -30 27 -17
7 -27 17 -23 23 5 8 8 7 11 -1 5 -15 32 -16 32 -2 0 6 -7 13 -15 16 -8 4 -15
11 -15 16 0 6 6 8 14 5 11 -4 46 48 46 69 0 8 -25 -19 -38 -41 -6 -11 -12 -14
-12 -7 0 7 7 24 16 38 9 13 14 27 10 31 -3 3 -6 1 -6 -5 0 -7 -7 -12 -15 -12
-9 0 -12 -6 -9 -15 4 -8 1 -15 -5 -15 -6 0 -11 5 -11 10 0 6 -7 10 -15 10 -9
0 -12 6 -9 15 7 18 -2 20 -12 3z"/>
<path d="M3147 5107 c-24 -65 -37 -110 -57 -193 -15 -63 -15 -76 -4 -81 8 -3
11 -10 8 -15 -4 -6 -10 -5 -15 3 -6 10 -9 8 -9 -8 0 -26 3 -27 31 -13 25 14
24 3 -2 -19 l-21 -17 28 -12 c27 -11 27 -11 10 3 -19 15 -19 15 -1 28 12 9 15
19 10 28 -11 17 -14 50 -4 43 4 -2 11 5 14 16 5 14 11 18 18 12 15 -11 54 -25
44 -16 -3 4 -17 12 -29 19 -13 6 -21 18 -19 26 2 8 5 21 6 29 2 8 4 15 5 15 1
0 3 7 5 15 1 8 12 44 24 79 11 35 21 65 21 67 0 1 -11 9 -24 17 -23 16 -24 15
-39 -26z"/>
<path d="M7053 2138 c-24 -27 -25 -29 -5 -19 18 10 22 9 22 -4 0 -10 -10 -15
-28 -15 -18 0 -37 -9 -50 -25 -17 -19 -18 -25 -7 -25 8 0 15 -5 15 -11 0 -6
-7 -9 -15 -5 -11 4 -15 -2 -16 -22 -1 -17 -3 -20 -6 -9 -3 10 -13 17 -26 16
-18 -1 -19 -2 -4 -6 18 -5 18 -6 -2 -19 -12 -9 -27 -12 -34 -8 -9 5 -9 4 -1
-5 6 -6 19 -13 30 -16 10 -2 29 -7 42 -11 18 -5 21 -3 16 10 -5 12 -2 15 12 9
10 -4 15 -2 11 3 -3 6 3 15 14 22 15 10 19 10 19 -2 0 -8 -6 -16 -12 -19 -9
-3 -7 -10 6 -23 16 -15 17 -15 7 -2 -11 15 -11 19 1 23 17 7 21 44 5 41 -7 -1
-22 -7 -34 -14 -27 -15 -30 -15 -30 2 0 7 7 13 16 12 11 -1 15 6 13 19 -2 12
0 16 5 9 4 -6 21 -10 38 -10 20 0 31 -5 33 -17 2 -9 -1 -17 -7 -17 -6 0 -11
-7 -11 -15 0 -8 5 -15 11 -15 5 0 8 4 5 9 -3 5 1 12 10 15 8 3 12 11 8 17 -3
6 0 16 7 21 11 8 10 9 -3 4 -10 -3 -18 -1 -18 4 0 6 6 10 13 10 9 0 8 3 -2 9
-8 5 -9 11 -3 15 6 4 14 0 19 -8 7 -12 11 -12 28 1 16 13 17 15 3 10 -10 -4
-18 -2 -18 3 0 6 11 10 25 10 14 0 25 5 25 11 0 5 5 7 10 4 6 -3 10 -1 10 4 0
14 -13 14 -28 -1 -9 -9 -15 -8 -25 7 -10 12 -16 14 -21 7 -4 -7 -1 -12 6 -12
22 0 -14 -20 -37 -20 -16 0 -20 7 -20 30 0 29 21 41 39 23 10 -10 36 -13 36
-4 0 4 -15 12 -34 18 -32 10 -37 8 -63 -19z"/>
</g>
</svg>
